<?xml version="1.0" standalone="no"?>
<svg xmlns:xlink="http://www.w3.org/1999/xlink" id="wave" style="transform:rotate(180deg); transition: 0.3s" viewBox="0 0 1440 490" version="1.1" xmlns="http://www.w3.org/2000/svg"><defs><linearGradient id="sw-gradient-0" x1="0" x2="0" y1="1" y2="0"><stop stop-color="rgba(168, 85, 247, 1)" offset="0%"/><stop stop-color="rgba(250, 245, 255, 1)" offset="100%"/></linearGradient></defs><path style="transform:translate(0, 0px); opacity:1" fill="url(#sw-gradient-0)" d="M0,343L48,318.5C96,294,192,245,288,196C384,147,480,98,576,98C672,98,768,147,864,171.5C960,196,1056,196,1152,196C1248,196,1344,196,1440,212.3C1536,229,1632,261,1728,269.5C1824,278,1920,261,2016,220.5C2112,180,2208,114,2304,73.5C2400,33,2496,16,2592,49C2688,82,2784,163,2880,228.7C2976,294,3072,343,3168,359.3C3264,376,3360,359,3456,302.2C3552,245,3648,147,3744,122.5C3840,98,3936,147,4032,212.3C4128,278,4224,359,4320,400.2C4416,441,4512,441,4608,383.8C4704,327,4800,212,4896,171.5C4992,131,5088,163,5184,163.3C5280,163,5376,131,5472,138.8C5568,147,5664,196,5760,204.2C5856,212,5952,180,6048,179.7C6144,180,6240,212,6336,187.8C6432,163,6528,82,6624,73.5C6720,65,6816,131,6864,163.3L6912,196L6912,490L6864,490C6816,490,6720,490,6624,490C6528,490,6432,490,6336,490C6240,490,6144,490,6048,490C5952,490,5856,490,5760,490C5664,490,5568,490,5472,490C5376,490,5280,490,5184,490C5088,490,4992,490,4896,490C4800,490,4704,490,4608,490C4512,490,4416,490,4320,490C4224,490,4128,490,4032,490C3936,490,3840,490,3744,490C3648,490,3552,490,3456,490C3360,490,3264,490,3168,490C3072,490,2976,490,2880,490C2784,490,2688,490,2592,490C2496,490,2400,490,2304,490C2208,490,2112,490,2016,490C1920,490,1824,490,1728,490C1632,490,1536,490,1440,490C1344,490,1248,490,1152,490C1056,490,960,490,864,490C768,490,672,490,576,490C480,490,384,490,288,490C192,490,96,490,48,490L0,490Z"/><defs><linearGradient id="sw-gradient-1" x1="0" x2="0" y1="1" y2="0"><stop stop-color="rgba(168, 85, 247, 1)" offset="0%"/><stop stop-color="rgba(168, 85, 247, 1)" offset="100%"/></linearGradient></defs><path style="transform:translate(0, 50px); opacity:0.9" fill="url(#sw-gradient-1)" d="M0,343L48,285.8C96,229,192,114,288,81.7C384,49,480,98,576,171.5C672,245,768,343,864,318.5C960,294,1056,147,1152,138.8C1248,131,1344,261,1440,302.2C1536,343,1632,294,1728,285.8C1824,278,1920,310,2016,334.8C2112,359,2208,376,2304,375.7C2400,376,2496,359,2592,294C2688,229,2784,114,2880,106.2C2976,98,3072,196,3168,236.8C3264,278,3360,261,3456,253.2C3552,245,3648,245,3744,261.3C3840,278,3936,310,4032,277.7C4128,245,4224,147,4320,130.7C4416,114,4512,180,4608,187.8C4704,196,4800,147,4896,155.2C4992,163,5088,229,5184,220.5C5280,212,5376,131,5472,81.7C5568,33,5664,16,5760,32.7C5856,49,5952,98,6048,138.8C6144,180,6240,212,6336,245C6432,278,6528,310,6624,285.8C6720,261,6816,180,6864,138.8L6912,98L6912,490L6864,490C6816,490,6720,490,6624,490C6528,490,6432,490,6336,490C6240,490,6144,490,6048,490C5952,490,5856,490,5760,490C5664,490,5568,490,5472,490C5376,490,5280,490,5184,490C5088,490,4992,490,4896,490C4800,490,4704,490,4608,490C4512,490,4416,490,4320,490C4224,490,4128,490,4032,490C3936,490,3840,490,3744,490C3648,490,3552,490,3456,490C3360,490,3264,490,3168,490C3072,490,2976,490,2880,490C2784,490,2688,490,2592,490C2496,490,2400,490,2304,490C2208,490,2112,490,2016,490C1920,490,1824,490,1728,490C1632,490,1536,490,1440,490C1344,490,1248,490,1152,490C1056,490,960,490,864,490C768,490,672,490,576,490C480,490,384,490,288,490C192,490,96,490,48,490L0,490Z"/><defs><linearGradient id="sw-gradient-2" x1="0" x2="0" y1="1" y2="0"><stop stop-color="rgba(126, 34, 206, 1)" offset="0%"/><stop stop-color="rgba(168, 85, 247, 1)" offset="100%"/></linearGradient></defs><path style="transform:translate(0, 100px); opacity:0.8" fill="url(#sw-gradient-2)" d="M0,392L48,383.8C96,376,192,359,288,302.2C384,245,480,147,576,147C672,147,768,245,864,245C960,245,1056,147,1152,155.2C1248,163,1344,278,1440,318.5C1536,359,1632,327,1728,334.8C1824,343,1920,392,2016,351.2C2112,310,2208,180,2304,147C2400,114,2496,180,2592,179.7C2688,180,2784,114,2880,81.7C2976,49,3072,49,3168,73.5C3264,98,3360,147,3456,155.2C3552,163,3648,131,3744,163.3C3840,196,3936,294,4032,318.5C4128,343,4224,294,4320,253.2C4416,212,4512,180,4608,212.3C4704,245,4800,343,4896,334.8C4992,327,5088,212,5184,147C5280,82,5376,65,5472,65.3C5568,65,5664,82,5760,89.8C5856,98,5952,98,6048,89.8C6144,82,6240,65,6336,81.7C6432,98,6528,147,6624,204.2C6720,261,6816,327,6864,359.3L6912,392L6912,490L6864,490C6816,490,6720,490,6624,490C6528,490,6432,490,6336,490C6240,490,6144,490,6048,490C5952,490,5856,490,5760,490C5664,490,5568,490,5472,490C5376,490,5280,490,5184,490C5088,490,4992,490,4896,490C4800,490,4704,490,4608,490C4512,490,4416,490,4320,490C4224,490,4128,490,4032,490C3936,490,3840,490,3744,490C3648,490,3552,490,3456,490C3360,490,3264,490,3168,490C3072,490,2976,490,2880,490C2784,490,2688,490,2592,490C2496,490,2400,490,2304,490C2208,490,2112,490,2016,490C1920,490,1824,490,1728,490C1632,490,1536,490,1440,490C1344,490,1248,490,1152,490C1056,490,960,490,864,490C768,490,672,490,576,490C480,490,384,490,288,490C192,490,96,490,48,490L0,490Z"/></svg>